<?xml version="1.0" standalone="no"?>
<!DOCTYPE svg PUBLIC "-//W3C//DTD SVG 20010904//EN"
 "http://www.w3.org/TR/2001/REC-SVG-20010904/DTD/svg10.dtd">
<svg version="1.0" xmlns="http://www.w3.org/2000/svg"
 width="512.000000pt" height="512.000000pt" viewBox="0 0 512.000000 512.000000"
 preserveAspectRatio="xMidYMid meet">
<metadata>
Created by potrace 1.11, written by Peter Selinger 2001-2013
</metadata>
<g transform="translate(0.000000,512.000000) scale(0.100000,-0.100000)"
fill="#000000" stroke="none">
<path d="M2335 4629 c-60 -7 -110 -16 -209 -35 -207 -40 -450 -137 -655 -262
-261 -158 -527 -424 -680 -679 -29 -49 -57 -95 -62 -103 -11 -17 -79 -166
-104 -225 -31 -73 -82 -247 -101 -340 -2 -11 -6 -31 -9 -45 -22 -104 -30 -204
-30 -380 0 -143 7 -251 20 -325 46 -259 108 -442 225 -663 229 -430 634 -785
1094 -957 106 -39 293 -91 364 -101 24 -3 80 -12 124 -19 76 -12 445 -14 493
-2 11 3 40 8 65 11 323 44 673 191 945 399 105 80 125 98 219 192 205 206 372
465 471 730 53 142 99 317 111 428 3 29 8 56 11 61 9 15 11 378 2 456 -55 490
-257 914 -604 1265 -62 63 -190 172 -247 211 -24 16 -45 31 -48 34 -15 15
-180 111 -251 146 -178 88 -448 173 -603 190 -28 3 -58 8 -66 11 -25 9 -401
10 -475 2z"/>
</g>
</svg>
